<mxfile host="65bd71144e">
    <diagram id="xDP5QCdwMN5W3fej62A9" name="Page-1">
        <mxGraphModel dx="2596" dy="718" grid="1" gridSize="10" guides="1" tooltips="1" connect="1" arrows="1" fold="1" page="1" pageScale="1" pageWidth="850" pageHeight="1100" math="0" shadow="0">
            <root>
                <mxCell id="0"/>
                <mxCell id="1" parent="0"/>
                <mxCell id="21" value="" style="whiteSpace=wrap;html=1;" vertex="1" parent="1">
                    <mxGeometry y="410" width="610" height="330" as="geometry"/>
                </mxCell>
                <mxCell id="6" value="Node" style="whiteSpace=wrap;html=1;align=center;verticalAlign=top;fillColor=#647687;fontColor=#ffffff;strokeColor=#314354;" vertex="1" parent="1">
                    <mxGeometry x="10" y="420" width="160" height="200" as="geometry"/>
                </mxCell>
                <mxCell id="14" style="edgeStyle=none;html=1;entryX=0.5;entryY=0;entryDx=0;entryDy=0;" edge="1" parent="1" source="2" target="3">
                    <mxGeometry relative="1" as="geometry"/>
                </mxCell>
                <mxCell id="2" value="request" style="whiteSpace=wrap;html=1;fillColor=#e3c800;fontColor=#000000;strokeColor=#B09500;" vertex="1" parent="1">
                    <mxGeometry x="240" y="190" width="120" height="60" as="geometry"/>
                </mxCell>
                <mxCell id="15" style="edgeStyle=orthogonalEdgeStyle;html=1;entryX=0.5;entryY=0;entryDx=0;entryDy=0;" edge="1" parent="1" source="3" target="10">
                    <mxGeometry relative="1" as="geometry">
                        <Array as="points">
                            <mxPoint x="300" y="390"/>
                            <mxPoint x="520" y="390"/>
                        </Array>
                    </mxGeometry>
                </mxCell>
                <mxCell id="16" style="edgeStyle=orthogonalEdgeStyle;html=1;" edge="1" parent="1" source="3" target="7">
                    <mxGeometry relative="1" as="geometry"/>
                </mxCell>
                <mxCell id="17" style="edgeStyle=orthogonalEdgeStyle;html=1;" edge="1" parent="1" source="3" target="6">
                    <mxGeometry relative="1" as="geometry">
                        <Array as="points">
                            <mxPoint x="300" y="390"/>
                            <mxPoint x="90" y="390"/>
                        </Array>
                    </mxGeometry>
                </mxCell>
                <mxCell id="3" value="load-balancer" style="whiteSpace=wrap;html=1;fillColor=#76608a;fontColor=#ffffff;strokeColor=#432D57;" vertex="1" parent="1">
                    <mxGeometry x="240" y="310" width="120" height="60" as="geometry"/>
                </mxCell>
                <mxCell id="4" value="container" style="whiteSpace=wrap;html=1;" vertex="1" parent="1">
                    <mxGeometry x="30" y="510" width="120" height="30" as="geometry"/>
                </mxCell>
                <mxCell id="5" value="container" style="whiteSpace=wrap;html=1;" vertex="1" parent="1">
                    <mxGeometry x="30" y="560" width="120" height="30" as="geometry"/>
                </mxCell>
                <mxCell id="7" value="Node" style="whiteSpace=wrap;html=1;align=center;verticalAlign=top;fillColor=#647687;fontColor=#ffffff;strokeColor=#314354;" vertex="1" parent="1">
                    <mxGeometry x="220" y="420" width="160" height="200" as="geometry"/>
                </mxCell>
                <mxCell id="8" value="container" style="whiteSpace=wrap;html=1;" vertex="1" parent="1">
                    <mxGeometry x="460" y="460" width="120" height="30" as="geometry"/>
                </mxCell>
                <mxCell id="9" value="container" style="whiteSpace=wrap;html=1;" vertex="1" parent="1">
                    <mxGeometry x="240" y="560" width="120" height="30" as="geometry"/>
                </mxCell>
                <mxCell id="10" value="Node" style="whiteSpace=wrap;html=1;align=center;verticalAlign=top;fillColor=#647687;fontColor=#ffffff;strokeColor=#314354;" vertex="1" parent="1">
                    <mxGeometry x="440" y="420" width="160" height="200" as="geometry"/>
                </mxCell>
                <mxCell id="11" value="container" style="whiteSpace=wrap;html=1;" vertex="1" parent="1">
                    <mxGeometry x="460" y="510" width="120" height="30" as="geometry"/>
                </mxCell>
                <mxCell id="12" value="container" style="whiteSpace=wrap;html=1;" vertex="1" parent="1">
                    <mxGeometry x="460" y="560" width="120" height="30" as="geometry"/>
                </mxCell>
                <mxCell id="18" style="edgeStyle=orthogonalEdgeStyle;html=1;entryX=0.5;entryY=1;entryDx=0;entryDy=0;" edge="1" parent="1" source="13" target="6">
                    <mxGeometry relative="1" as="geometry">
                        <Array as="points">
                            <mxPoint x="300" y="650"/>
                            <mxPoint x="90" y="650"/>
                        </Array>
                    </mxGeometry>
                </mxCell>
                <mxCell id="19" style="edgeStyle=orthogonalEdgeStyle;html=1;entryX=0.5;entryY=1;entryDx=0;entryDy=0;" edge="1" parent="1" source="13" target="10">
                    <mxGeometry relative="1" as="geometry">
                        <Array as="points">
                            <mxPoint x="300" y="650"/>
                            <mxPoint x="520" y="650"/>
                        </Array>
                    </mxGeometry>
                </mxCell>
                <mxCell id="20" style="edgeStyle=orthogonalEdgeStyle;html=1;" edge="1" parent="1" source="13" target="7">
                    <mxGeometry relative="1" as="geometry"/>
                </mxCell>
                <mxCell id="13" value="master" style="whiteSpace=wrap;html=1;fillColor=#6d8764;fontColor=#ffffff;strokeColor=#3A5431;" vertex="1" parent="1">
                    <mxGeometry x="240" y="670" width="120" height="60" as="geometry"/>
                </mxCell>
                <mxCell id="23" value="" style="labelPosition=right;align=left;strokeWidth=1;shape=mxgraph.mockup.markup.curlyBrace;html=1;shadow=0;dashed=0;strokeColor=#999999;direction=north;" vertex="1" parent="1">
                    <mxGeometry x="-30" y="420" width="20" height="200" as="geometry"/>
                </mxCell>
                <mxCell id="24" value="Virtual machine or&lt;br&gt;Physical Computer" style="text;html=1;align=center;verticalAlign=middle;resizable=0;points=[];autosize=1;strokeColor=none;fillColor=none;" vertex="1" parent="1">
                    <mxGeometry x="-150" y="500" width="120" height="40" as="geometry"/>
                </mxCell>
                <mxCell id="25" value="" style="labelPosition=right;align=left;strokeWidth=1;shape=mxgraph.mockup.markup.curlyBrace;html=1;shadow=0;dashed=0;strokeColor=#999999;direction=north;" vertex="1" parent="1">
                    <mxGeometry x="210" y="670" width="20" height="60" as="geometry"/>
                </mxCell>
                <mxCell id="26" value="Controls what &lt;br&gt;each node does" style="text;html=1;align=center;verticalAlign=middle;resizable=0;points=[];autosize=1;strokeColor=none;fillColor=none;" vertex="1" parent="1">
                    <mxGeometry x="100" y="680" width="110" height="40" as="geometry"/>
                </mxCell>
                <mxCell id="27" value="Nodes + Master&lt;br&gt;form a cluster" style="text;html=1;align=center;verticalAlign=middle;resizable=0;points=[];autosize=1;strokeColor=none;fillColor=none;" vertex="1" parent="1">
                    <mxGeometry x="460" y="680" width="110" height="40" as="geometry"/>
                </mxCell>
            </root>
        </mxGraphModel>
    </diagram>
</mxfile>